<svg xmlns="http://www.w3.org/2000/svg" width="1000" height="737"><path d="M463.241 690.9c-5.092-.387-19.38-.947-31.753-1.244-12.371-.298-22.83-.743-23.241-.99-.41-.246-4.122-.735-8.247-1.086-13.37-1.137-17.399-1.772-23.415-3.692-3.253-1.039-7.347-1.888-9.097-1.888-1.75 0-4.667-.742-6.484-1.648-1.817-.906-4.685-1.609-6.374-1.56-1.69.047-3.548-.31-4.132-.793-.583-.484-2.171-1.095-3.53-1.358-4.599-.89-27.43-8.858-33.968-11.855-8.642-3.962-16.696-6.757-17.41-6.043-.318.318-1.368-.093-2.334-.914-1.541-1.309-31.688-14.43-39.756-17.305-1.65-.587-5.46-2.858-8.467-5.046-3.007-2.188-5.707-3.994-6-4.013-.293-.02-4.808-2.074-10.033-4.565-5.225-2.492-13.1-6.075-17.5-7.962-16.751-7.185-40.5-20.694-40.5-23.038 0-.495-.589-.9-1.308-.9-1.677 0-19.69-13.693-26.07-19.817-5.833-5.598-14.832-14.056-17.328-16.285-3.282-2.93-7.547-8.366-8.551-10.898-.546-1.375-1.37-3.4-1.833-4.5-5.146-12.24-8.03-26.006-7.373-35.2.995-13.933 1.4-17.064 2.582-19.955 3.31-8.1 4.079-10.011 4.771-11.845.415-1.1 1.96-4.482 3.433-7.516 1.472-3.034 2.677-6.071 2.677-6.75 0-.679.338-1.236.75-1.238.413-.002 1.627-2.14 2.7-4.75 3.122-7.599 15.28-24.857 23.404-33.22 2.39-2.46 4.863-5.177 5.496-6.039 1.644-2.238 16.006-14.572 18.56-15.938 1.178-.631 7.417-4.95 13.862-9.598 6.446-4.648 12.298-8.451 13.004-8.451.707 0 4.51-1.827 8.45-4.06 3.942-2.234 9.47-5.114 12.284-6.402 6.934-3.171 30.012-12.538 30.892-12.538.39 0 2.611-.867 4.938-1.927 2.326-1.06 5.416-2.225 6.867-2.589l2.637-.662-3.313-7.66c-7.503-17.351-8.873-20.766-11.216-27.94-2.22-6.795-6.771-23.71-7.73-28.722-.21-1.1-1.095-5.436-1.968-9.635-2.872-13.817-4.59-35.938-4.767-61.365-.095-13.75.111-27.475.46-30.5a804.41 804.41 0 001.174-11c.298-3.025 1.228-9.227 2.067-13.783.84-4.556 1.289-8.668.998-9.137-.29-.47.08-1.357.822-1.973.764-.634 1.142-2.202.873-3.613-.278-1.454-.012-2.494.64-2.494.614 0 1.116-.934 1.116-2.075 0-3.223 18.686-27.171 22.17-28.413.917-.328 3.576-2.339 5.907-4.47 2.33-2.13 5.962-4.699 8.069-5.708 2.107-1.009 3.836-2.137 3.843-2.506.006-.37 1.699-1.22 3.761-1.887 2.063-.667 5.771-2.277 8.242-3.577 2.47-1.3 4.938-2.364 5.484-2.364.545 0 3.698-1.341 7.008-2.98C314.879 90.347 338.93 82 341.236 82c.508 0 3.7-1.06 7.093-2.354 6.558-2.5 21.845-6.47 27.671-7.184 1.925-.236 4.625-.85 6-1.367 2.473-.928 18.694-3.903 25.156-4.614 1.84-.202 5.369-.88 7.844-1.508 5.505-1.395 7.5-1.82 12-2.562 3.429-.565 5.39-.806 15.5-1.905 2.75-.298 7.25-.975 10-1.502 12.099-2.322 18.128-2.778 38.5-2.912 15.371-.1 39.794 1.163 45.159 2.336 1.287.282 4.591.741 7.341 1.021 4.525.46 10.705 1.486 17.5 2.904 3.463.723 8.081 1.42 18 2.721 7.58.994 12.473 2.081 22.5 4.998 7.844 2.282 15.727 5.053 20.979 7.376 3.173 1.404 6.127 2.552 6.563 2.552.435 0 2.967.976 5.625 2.168 2.658 1.193 5.058 2.238 5.333 2.322.275.084 1.625.634 3 1.222s4.3 1.755 6.5 2.594c2.2.838 4.675 1.79 5.5 2.113.825.324 3.75 1.92 6.5 3.548 2.75 1.627 6.463 3.701 8.25 4.61 1.788.908 3.25 2.05 3.25 2.537 0 .487.675.886 1.5.886s1.5.406 1.5.902 1.267 1.344 2.815 1.884c3.367 1.173 16.185 13.539 16.185 15.613 0 .802.563 2.072 1.25 2.822 1.894 2.066 3.591 4.84 5.803 9.488 1.102 2.314 2.463 4.492 3.023 4.838.56.346.791 2.064.513 3.818-.28 1.753.1 4.954.842 7.112.789 2.295 1.4 8.72 1.474 15.474.15 13.915 1.036 23.049 2.238 23.049.486 0 1.666-.428 2.62-.952 3.501-1.918 8.955-4.077 18.237-7.218 8.978-3.038 10.325-3.218 24.5-3.273 15.653-.06 14.951-.191 29 5.44 1.1.44 3.575 1.384 5.5 2.095 1.925.712 3.725 1.556 4 1.876.275.32 3.064 2.115 6.198 3.987 3.134 1.872 5.47 3.774 5.19 4.225-.454.735.963 1.22 2.801.959.379-.054.972.792 1.317 1.881.346 1.09 1.035 1.98 1.532 1.98 1.083 0 10.962 9.996 10.962 11.092 0 .42.571 1.36 1.27 2.087 1.918 1.996 6.75 22.977 7.902 34.321.299 2.938-1.605 14.54-3.339 20.345A865.46 865.46 0 00824.309 278c-.844 3.025-1.848 5.725-2.23 6-.38.275-1.324 2.075-2.097 4-2.086 5.202-8.853 16.802-13.179 22.59-2.091 2.8-3.803 5.393-3.803 5.761 0 2.288-15.85 21.544-25.75 31.285-1.787 1.758-3.25 3.582-3.25 4.053 0 .471-1.615 1.726-3.589 2.789-1.974 1.063-4.345 2.894-5.27 4.07-.924 1.175-3.472 3.285-5.66 4.688-2.19 1.404-5.693 4.385-7.785 6.626l-3.803 4.073 2.803.684c3.795.926 16.985 6.16 21.304 8.453 1.925 1.022 7.327 3.594 12.004 5.715 7.736 3.508 12.853 6.623 28.884 17.58 18.664 12.758 27.845 23.236 36.043 41.133 2.771 6.05 5.045 11.76 5.054 12.691.008.93.414 1.937.9 2.238.488.302 1.643 3.59 2.568 7.31a1256.88 1256.88 0 002.693 10.64c1.33 5.097 1.287 17.536-.092 27.302-1.187 8.403-3.05 16.509-3.98 17.319-.994.866-3.1 4.394-4.33 7.25-.65 1.512-1.534 2.75-1.963 2.75-.43 0-.781.845-.781 1.878 0 1.032-.675 2.437-1.5 3.122s-1.5 1.762-1.5 2.395c0 .632-1.284 2.714-2.854 4.627-1.57 1.913-3.585 4.898-4.477 6.633-.892 1.736-2.238 3.77-2.99 4.523-.751.751-2.565 3.265-4.03 5.585-3.24 5.133-26.133 28.313-29.74 30.112-1.424.71-4.124 2.622-6 4.248-1.875 1.626-4.85 3.654-6.612 4.508-1.761.854-4.372 2.636-5.801 3.96-1.43 1.325-3.196 2.409-3.925 2.409-.73 0-1.893.683-2.586 1.518-.693.836-2.886 2.282-4.873 3.215-1.987.933-6.2 3.15-9.362 4.927-3.163 1.777-5.757 2.918-5.765 2.536-.008-.383-.346-.245-.75.306-.404.55-1.86 1.519-3.235 2.151l-11.5 5.29c-12.873 5.92-15.5 7.285-15.5 8.048 0 .372-.563.676-1.25.676-1.435 0-4.492 1.347-21.562 9.497-6.772 3.232-12.804 5.574-13.405 5.202-.625-.386-.808-.216-.429.398.397.642-.647 1.358-2.595 1.78-1.793.39-3.504 1.09-3.802 1.556-.3.467-1.424 1.01-2.5 1.204-1.077.195-3.532 1.077-5.457 1.959-4.612 2.113-25.462 8.737-27.503 8.737-.878 0-2.968.71-4.644 1.576-1.677.867-3.792 1.742-4.7 1.944-6.419 1.426-17.113 4.76-19.403 6.047-1.513.85-2.75 1.24-2.75.867s-.563-.215-1.25.351c-1.183.976-15.177 5.421-22.75 7.227-8.015 1.912-19.612 2.86-42.5 3.475-8.25.222-22.65.669-32 .993-29.585 1.025-44.723 1.143-54.259.42zm61.259-31.37c15.23-1.538 19.763-1.957 38.256-3.537 6.74-.576 15.74-1.471 20-1.989 4.259-.518 13.369-1.62 20.244-2.451 23.541-2.843 28.286-3.545 29.392-4.35.61-.444 2.683-.919 4.608-1.055 1.925-.136 7.325-1.536 12-3.11 4.675-1.574 16.15-4.996 25.5-7.605 9.35-2.609 20.15-6.057 24-7.662 3.85-1.606 8.575-3.383 10.5-3.95 1.925-.566 4.015-1.448 4.645-1.96.63-.512 1.53-.844 2-.737.47.106 1.53-.068 2.355-.388s3.993-1.474 7.04-2.566c5.928-2.124 19.46-8.614 32.46-15.57a1422.63 1422.63 0 0117.124-8.972c9.255-4.76 25.6-15.222 26.21-16.777.183-.468.797-.851 1.364-.851 1.745 0 12.42-8.303 14.575-11.337 1.12-1.576 4.246-5.183 6.947-8.014 2.702-2.832 6.343-7.253 8.092-9.824 1.75-2.571 3.76-5.271 4.467-6 5.31-5.468 14.189-22.875 16.745-32.825 1.775-6.907 2.086-10.28 1.663-18-.51-9.29-2.568-19.5-5.142-25.5-.708-1.65-2.48-6.187-3.94-10.083-2.55-6.808-7.523-15.303-15.175-25.917-3.746-5.196-21.325-19.454-34.471-27.958-6.001-3.882-27.012-14.775-28.959-15.013-.275-.034-3.2-1.008-6.5-2.164-3.3-1.156-8.759-3.024-12.131-4.15l-6.131-2.048-4.37 3.888c-2.402 2.139-4.705 3.901-5.118 3.917-.412.015-.75.407-.75.87s3.263 2.077 7.25 3.586c3.988 1.51 9.725 3.678 12.75 4.819 3.025 1.14 6.175 2.642 7 3.336.825.693 2.85 1.574 4.5 1.956 1.65.383 4.575 1.9 6.5 3.374 1.925 1.473 5.3 3.72 7.5 4.994 2.2 1.275 5.125 3.702 6.5 5.395 1.375 1.693 4.401 5.244 6.724 7.892 2.324 2.649 5.52 7.4 7.103 10.56 1.582 3.16 3.838 7.321 5.013 9.246 3.093 5.07 3.978 7.359 6.34 16.398 3.03 11.594 3.036 11.648 3.263 27.602.222 15.694-1.14 25.12-5.746 39.753-2.383 7.571-7.33 19.17-8.637 20.247-.333.275-1.388 1.729-2.344 3.231-4.165 6.546-13.946 16.276-25.216 25.083-13.038 10.189-17.573 13.265-25.915 17.58-4.353 2.252-8.628 4.718-9.5 5.48-.872.762-3.16 2.177-5.085 3.145-1.925.968-3.725 2.042-4 2.386-.502.629-20.573 10.234-29 13.878-10.235 4.426-23.966 9.194-31 10.764-4.125.921-7.95 2.013-8.5 2.426-.55.413-3.1 1.024-5.665 1.358-2.565.334-6.321 1.538-8.346 2.675-3.418 1.92-7.489 1.96-7.489.073 0-.432-2.25-.57-5-.305-4.395.422-5 .253-4.999-1.397 0-1.514 1.5-2.238 7.75-3.742 4.262-1.026 9.099-2.47 10.749-3.21 2.833-1.27 11.826-4.415 14-4.896 3.586-.795 28.532-12.794 35.773-17.208 3.425-2.088 7.447-4.477 8.937-5.309 14.23-7.941 24.938-15.455 30.91-21.69 5.983-6.247 20.804-28.227 25.997-38.555 3.765-7.488 9.314-26.015 10.368-34.616.246-2.008.955-7.476 1.575-12.151 2.051-15.455-.97-34.408-7.46-46.793-1.266-2.418-1.468-2.202-8.462 9.07-3.94 6.352-8.37 13.05-9.844 14.886-5.97 7.435-43.168 43.356-48.294 46.634-3.025 1.935-9.1 6.27-13.5 9.633-13.315 10.178-20.892 14.295-35 19.02-13.303 4.455-17.982 5.534-32.5 7.498-8.495 1.15-43.676.544-49-.843-1.925-.501-8-2.107-13.5-3.568-5.5-1.46-10.95-2.852-12.112-3.091-1.162-.24-8.587-2.737-16.5-5.55-7.914-2.814-16.188-5.708-18.388-6.431-5.15-1.694-14.47-5.515-21.68-8.889-7.432-3.479-13.523-4.416-35.82-5.51-10.175-.5-21.875-1.661-26-2.581-19.139-4.268-42.61-14.58-52.589-23.105-2.82-2.41-5.548-4.38-6.063-4.38-.516 0-2.594-2.173-4.62-4.829-2.025-2.656-8.53-9.572-14.455-15.369-16.64-16.28-27.06-27.396-35.783-38.17C302.774 418.1 292 403.375 292 402.36c0-.272-1.079-1.927-2.397-3.678-3.695-4.905-13.909-22.383-17.64-30.183-1.841-3.85-3.45-7.15-3.574-7.335-.125-.185-1.726.321-3.558 1.124-1.832.803-5.356 2.018-7.831 2.7-13.615 3.754-43.339 21.071-62.167 36.22-9.75 7.845-26.957 24.778-31.288 30.791-10.127 14.059-13.971 21.336-10.295 19.49.688-.345-.253.708-2.09 2.34-4.352 3.865-9.957 19.831-13.784 39.262-2.748 13.958-2.752 14.033-1.162 23.935 3.396 21.147 17.7 41.734 45.286 65.18 9.941 8.45 27.151 21.013 41 29.93 4.95 3.188 10.8 7.078 13 8.646 10.523 7.501 32.976 16.671 43.5 17.767 8.204.854 20.37 3.212 30.5 5.912 14.318 3.816 22.311 5.249 36.5 6.541 6.875.627 17.607 2.007 23.85 3.068 6.242 1.061 14.431 1.929 18.198 1.929 3.767 0 11.935.644 18.15 1.432 6.216.788 17.319 1.667 24.673 1.954 7.354.287 13.602.753 13.885 1.036 1.192 1.193 66.305.464 79.744-.892zm-269-36.509c-1.65-1.104-3.818-2.01-4.817-2.014-.999-.004-3.249-1.08-5-2.39-1.75-1.312-4.283-2.72-5.628-3.13-1.345-.41-3.82-1.582-5.5-2.604-1.68-1.022-4.016-2.283-5.19-2.802-2.497-1.104-14.528-9.673-22.257-15.852-2.966-2.372-7.466-5.5-10-6.953-5.248-3.009-19.128-13.58-23.608-17.981-5.716-5.616-12.012-13.13-14.5-17.31-1.375-2.308-3.525-5.387-4.778-6.841-3.77-4.374-4.063-4.803-7.04-10.325-8.881-16.47-9.567-28.1-2.968-50.319 4.095-13.79 5.93-19.082 8.491-24.5 2.918-6.171 12.554-21.14 14.819-23.02.812-.674 1.476-1.755 1.476-2.403 0-.648 2.183-3.63 4.85-6.627 2.668-2.998 5.566-6.839 6.441-8.536.875-1.698 3.08-4.24 4.9-5.648 1.82-1.41 4.266-3.474 5.436-4.588 2.055-1.958 18.695-13.261 26.859-18.245 10.842-6.619 22.68-12.168 23.725-11.122 1.044 1.044-1.353 3.248-3.911 3.597-.99.134-2.25 1.266-2.8 2.515-.55 1.249-3.064 3.322-5.587 4.608-7.84 3.995-37.051 34.814-46.383 48.935-6.19 9.367-13.985 28.256-15.447 37.43-2.105 13.212-2.467 28.413-.803 33.685.855 2.705 1.856 6.719 2.226 8.919.37 2.2 1.024 4.45 1.453 5 .428.55 1.336 3.475 2.018 6.5 2.308 10.252 9.45 22.461 23.286 39.813 2.33 2.923 8.287 8.506 13.237 12.409 4.95 3.902 11.25 9.118 14 11.59 5.53 4.972 23.273 17.007 33.753 22.894 4.236 2.38 6.655 4.353 6.49 5.294-.398 2.265-3.876 2.275-7.243.021zm524.167-37.688c-1.214-1.213-.706-2.221 3.583-7.118a895.337 895.337 0 008.75-10.182c2.475-2.931 5.021-5.864 5.658-6.517 4.604-4.725 13.03-23.04 15.88-34.516 1.01-4.063 1.875-6.686 2.474-7.5 1.394-1.895 4.889-13.01 5.502-17.5.338-2.475.848-10.416 1.132-17.646.45-11.422.235-14.15-1.632-20.803-2.539-9.048-9.348-26.002-11.065-27.551-.305-.275-1.62-2.3-2.921-4.5-5.338-9.023-21.155-26.767-26.778-30.04-2.897-1.686-4.47-4.484-2.5-4.445 1.278.024 9.343 2.982 12.293 4.507 6.244 3.229 22.833 18.693 30.872 28.777 8.19 10.275 11.137 14.937 16.29 25.766 9.355 19.663 10.183 34 3.426 59.304-1.992 7.457-3.797 11.608-7.384 16.981-5.406 8.098-6.778 10.328-8.093 13.15-.513 1.1-1.995 3.2-3.293 4.667a870.812 870.812 0 00-10.58 12.178c-1.805 2.114-3.281 3.553-3.281 3.198s-1.013.416-2.25 1.714c-1.238 1.298-4.05 3.68-6.25 5.295-2.2 1.615-4.36 3.501-4.8 4.192-.44.69-1.436 1.256-2.215 1.256-.778 0-1.896.9-2.485 2s-1.95 2-3.027 2c-1.076 0-2.518.9-3.205 2-1.264 2.024-2.884 2.55-4.101 1.333zM413.5 537.38c-1.1-.159-8.075-1.01-15.5-1.893-7.425-.882-14.625-1.8-16-2.04-1.375-.241-7-.701-12.5-1.023-5.5-.321-12.25-1.18-15-1.91-2.75-.729-8.898-1.825-13.663-2.435-8.853-1.135-25.949-5.91-31.337-8.75-7.67-4.046-15.301-9.598-16.348-11.894-1.855-4.072-1.384-9.792 1.115-13.537 6.942-10.405 31.713-19.739 50.483-19.022 1.876.072 3.25.655 3.25 1.38 0 1.4-3.05 2.875-10.5 5.08-7.531 2.227-18.388 7.62-20.524 10.193-.705.85-1.454 3.705-1.666 6.348l-.385 4.804 5.942 3.167c5.468 2.915 11.092 4.497 20.133 5.663a369.903 369.903 0 0129.5 5.047c12.472 2.649 26.587 4.995 27.84 4.628.462-.135 8.787.64 18.5 1.724s21.485 2.211 26.16 2.505c4.675.294 9.85.76 11.5 1.038 1.65.277 6.375.705 10.5.95s8.767.93 10.315 1.521c1.548.592 5.46 1.076 8.691 1.076 6.319 0 7.63.767 5.712 3.338-1.02 1.366-4.076 1.712-18.718 2.122-17.928.501-44.36 1.506-51.5 1.956-2.2.14-4.9.123-6-.036zM550 512.551c1.375-.32 5.425-1.02 9-1.558 12.5-1.877 14.178-2.293 14.694-3.638.286-.745 1.597-1.355 2.913-1.355 1.316 0 2.393-.42 2.393-.933 0-.76 2.692-2.14 5-2.56 3.488-.635 16.34-10.105 24.075-17.738 10-9.868 13.825-14.745 15.95-20.336.81-2.13.65-2.427-1.3-2.386-1.506.032-3.355 1.656-5.725 5.03-1.925 2.74-6.65 7.609-10.5 10.818-3.85 3.209-8.832 7.583-11.072 9.72-4.526 4.318-14.896 10.94-20.717 13.23-2.586 1.016-3.382 1.74-2.508 2.28 2.212 1.368-.798 3.288-4.953 3.158-5.372-.166-13.563 1.776-14.844 3.522-.782 1.064-1.925 1.282-3.998.761-1.597-.4-2.527-.354-2.066.103.46.457-3.14 1.363-8.002 2.013l-8.84 1.182 9-.366c4.95-.2 10.125-.627 11.5-.947zm8.5-4.121c6.268-1.744 8.115-1.707 3.5.07-1.925.741-4.625 1.342-6 1.334-1.498-.008-.495-.57 2.5-1.404zm-7.313.887c-.721-.289-1.584-.253-1.916.079-.332.332.258.568 1.312.525 1.165-.048 1.402-.285.605-.604zm-80.237-4.846c6.298-.832 13.498-2.152 16-2.934 8.948-2.797 22.521-7.73 25.51-9.27 9.158-4.724 26.348-20.339 36.54-33.193 1.925-2.428 4.655-5.8 6.066-7.494 1.411-1.694 5.236-6.586 8.5-10.872 3.264-4.285 7.415-9.685 9.225-12 6.545-8.37 13.212-18.662 17.071-26.356C596.961 388.2 604 373.026 604 371.876c0-.62 1.56-5.028 3.468-9.795 6.114-15.282 7.253-21.484 10.313-56.128.98-11.105-.879-29.648-3.726-37.155-2.895-7.632-9.673-15.01-16.85-18.34-5.485-2.545-8.958-3.345-32.273-7.43-5.812-1.02-12.337-2.325-14.5-2.903-2.162-.577-7.757-1.301-12.432-1.609-4.675-.307-11.875-.843-16-1.19-9.973-.839-18.14-.828-32 .042-12.263.77-37.817-.494-57.5-2.843-6.6-.788-16.95-1.942-23-2.564-6.05-.621-14.15-1.73-18-2.464-6.348-1.21-17-2.837-17-2.598 0 .054-4.725-1.219-10.5-2.827a6024.596 6024.596 0 00-23.5-6.476c-7.15-1.954-14.35-3.985-16-4.515-1.65-.53-5.925-1.461-9.5-2.07-8.456-1.44-15.54-3.753-17.045-5.566-.66-.795-2.63-1.445-4.377-1.445-1.748 0-3.606-.39-4.128-.867-.523-.477-3.062-1.566-5.644-2.42-3.554-1.176-4.928-1.27-5.66-.383-2.37 2.866-5.56 14.19-6.661 23.636-1.62 13.904.11 47.138 3.531 67.824 2.229 13.473 13.007 52.966 18.344 67.21 3.027 8.082 24.94 51.453 29.946 59.27 2.032 3.173 3.694 6.157 3.694 6.63 0 1.392 11.958 17.152 17.247 22.731 2.676 2.823 5.938 6.648 7.25 8.5 2.97 4.195 35.692 38.615 36.849 38.762.465.059 2.155 1.04 3.755 2.18 3.584 2.551 15.103 5.948 17.79 5.245 1.088-.284 3.592.016 5.565.668 8.896 2.935 38.514 3.728 55.494 1.485zM602 493.5c.685-.825 1.02-1.5.745-1.5s-1.06.675-1.745 1.5-1.02 1.5-.745 1.5 1.06-.675 1.745-1.5zm-12.105-18.877c1.318-1.409 2.72-2.36 3.117-2.116.396.245 1.568-.556 2.604-1.78l1.884-2.227-2.5 2-2.5 2 1.844-2.183c1.014-1.2 2.364-1.984 3-1.742 1.235.47 27.767-25.881 31.54-31.325 1.239-1.788 2.784-3.263 3.434-3.278 1.257-.03 18.682-25.948 18.682-27.787 0-.597.627-1.445 1.394-1.885 1.405-.806 8.14-12.38 11.521-19.8 15.936-34.962 27.298-79.913 28.76-113.773.432-10.002.281-15.493-.467-17-.608-1.225-1.272-3.127-1.477-4.227-.634-3.412-2.894 9.217-2.61 14.583.156 2.935-.2 5.348-.85 5.75-.614.38-1.436 3.61-1.826 7.179-.389 3.568-.975 6.938-1.3 7.488-.327.55-.731 1.995-.899 3.21-.167 1.216-1.19 4.987-2.275 8.38-1.084 3.394-1.971 6.674-1.972 7.29 0 1.817-6.41 21.038-12.045 36.12-2.876 7.7-5.293 14.675-5.37 15.5-.078.825-1.139 3.39-2.358 5.7s-2.94 6.36-3.823 9c-2.17 6.48-12.38 26.952-16.24 32.563-1.715 2.493-4.55 7.166-6.3 10.385-4.807 8.844-17.326 26.237-27.964 38.852-6.147 7.29-17.067 21.301-19.528 25.057-1.758 2.683-1.755 2.719.166 1.684 1.08-.582 3.04-2.21 4.358-3.618zm90.831-14.667c3.726-1.222 7.235-2.583 7.799-3.024.563-.442 3.195-1.54 5.848-2.44 4.305-1.462 9.39-4.088 20.627-10.655 9.702-5.669 35.658-30.437 40.3-38.456.955-1.65 1.17-1.534-3.8-2.074-10.484-1.139-10.755-1.078-13.017 2.928-2.061 3.65-10.423 12.771-16.285 17.765-1.614 1.375-5.806 5.031-9.316 8.125-10.387 9.155-23.54 17.846-37.132 24.535-7.012 3.45-12.75 6.439-12.75 6.64 0 .866 11.515-1.306 17.726-3.344zM650 431.941c0-.582-.45-.78-1-.441-.55.34-1 .816-1 1.059s.45.441 1 .441 1-.477 1-1.059zm14.009-12.948c2.078-1.646 4.085-2.993 4.46-2.993 1.187 0 14.657-8.265 24.014-14.734 4.96-3.429 12.167-8.4 16.017-11.049 12.731-8.756 42.855-33.464 51.788-42.477 7.897-7.967 17.669-19.548 21.712-25.731 1.43-2.187 4.336-5.76 7.325-9.009 2.735-2.971 4.636-6.68 8.971-17.5 6.406-15.989 8.851-29.388 8.81-48.272-.015-6.537-.574-9.138-3.556-16.535-4.37-10.84-7.56-16.536-9.638-17.21-.873-.283-3.108-1.872-4.966-3.531-10.056-8.978-23.649-11.443-46.38-8.412-4.392.586-23.293 8.466-28.31 11.803-3.085 2.053-3.243 2.463-3.25 8.475l-.006 6.318 2.808-2c15.35-10.93 35.529-14.23 48.024-7.856 2.933 1.496 6.2 2.72 7.26 2.72 1.06 0 2.698.9 3.64 2 .942 1.1 2.238 2 2.881 2 .644 0 1.909 1.848 2.812 4.106.904 2.258 2.233 4.695 2.953 5.415.72.72 2.106 4.585 3.08 8.588 2.94 12.103.865 25.587-6.374 41.391-7.57 16.525-10.724 22.02-12.46 21.706-.893-.161-1.624.208-1.624.822 0 .613-.563 1.686-1.25 2.385-.688.699-2.375 2.761-3.75 4.583-4.592 6.086-7.468 9.562-11.477 13.872-2.188 2.352-4.685 5.354-5.549 6.671-3.01 4.59-31.701 29.64-35.724 31.193-.688.265-1.25 1.037-1.25 1.714 0 .678-1.213 1.786-2.695 2.46-1.482.676-5.775 3.336-9.54 5.911A847.19 847.19 0 01680.563 384c-14.184 9.267-16.016 10.924-21.063 19.048a2307.423 2307.423 0 01-9.647 15.373c-7.921 12.486-8.028 12.028 1.748 7.533 4.746-2.183 10.33-5.315 12.408-6.961zm.438 6.507c5.191-2.475 9.76-4.5 10.151-4.5.392 0 2.106-1.045 3.808-2.321 1.702-1.277 5.569-3.676 8.594-5.332 12.39-6.783 28.938-16.742 28.517-17.164-.248-.247-3.728 1.503-7.734 3.891s-9.533 5.536-12.283 6.996c-2.75 1.46-7.25 3.893-10 5.409-2.75 1.515-10.175 5.48-16.5 8.811-18.265 9.62-20.781 11.946-4.553 4.21zm54.74-31.183c-.721-.289-1.584-.253-1.916.079-.332.332.258.568 1.312.525 1.165-.048 1.402-.285.605-.604zM701.5 345.19c13.679-8.843 22.055-15.897 42.838-36.079 11.805-11.463 25.493-31.728 31.243-46.254 4.98-12.582 2.832-26.897-5.193-34.607-2.433-2.338-5.09-4.25-5.906-4.25-.815 0-1.482-.418-1.482-.929 0-1.63-11.274-4.28-17.796-4.185-9.063.132-18.045 2.497-25.029 6.59-3.345 1.961-6.36 4.014-6.698 4.561-.338.548-1.034.737-1.546.42-.53-.327-.969 1.925-1.02 5.234-.164 10.796-.667 20.207-1.444 27.024-.426 3.732-.858 9.935-.96 13.785-.102 3.85-.902 9.7-1.777 13-.876 3.3-1.895 8.25-2.265 11-.792 5.886-5.035 21.696-6.984 26.027-1.718 3.815-6.38 16.625-8.089 22.224l-1.297 4.251 3.202-1.643c1.762-.904 6.353-3.68 10.203-6.17zm-216-121.077c7.605-1.396 15.831-1.458 15-.113-.523.846 3.97 1.577 6.793 1.104.436-.073 4.036-.373 8-.666 9.878-.73 26.707-3.573 26.707-4.512 0-.422-17.212-.815-38.25-.873-21.038-.058-40.275-.297-42.75-.531-2.475-.234-14.683-.677-27.13-.983-12.445-.307-26.17-1.006-30.5-1.555-4.328-.548-9.895-1.248-12.37-1.555-2.475-.307-7.65-1.172-11.5-1.923-3.85-.752-9.326-1.614-12.17-1.916-5.59-.594-21.557-3.987-25.438-5.406-1.315-.48-6.667-1.67-11.892-2.644-5.225-.974-11.75-2.799-14.5-4.055-2.75-1.257-9.684-3.792-15.409-5.635-6.223-2.003-10.577-3.953-10.827-4.85-.23-.825-2.296-2.707-4.591-4.183-6.959-4.474-15.329-12.536-18.695-18.006-8.795-14.295-7.165-24.454 5.955-37.106 3.824-3.688 7.249-6.705 7.61-6.705.361 0 2.232-1.575 4.157-3.5 1.925-1.925 4.06-3.5 4.744-3.5.685 0 2.552-1.133 4.15-2.517 1.599-1.385 4.931-3.491 7.406-4.681 2.475-1.19 4.821-2.645 5.214-3.233.392-.588.842-.927 1-.754.458.503 3.705-.783 12.786-5.066 4.675-2.205 12.325-5.12 17-6.48 16.158-4.696 26.028-7.217 30.755-7.852 6.852-.922 7.901-1.163 10.02-2.297 1.049-.56 2.765-.97 3.816-.91 2.115.121 16.485-2.86 20.409-4.233 1.375-.482 5.65-1.132 9.5-1.445 3.85-.313 8.125-.794 9.5-1.068s3.625-.727 5-1.006c3.752-.764 16.53-2.418 24.988-3.235 6.077-.587 7.552-1.062 7.833-2.525.317-1.654-.337-1.756-7.988-1.244-10.82.724-17.815 1.41-25.833 2.532-3.575.5-8.525 1.167-11 1.481l-8.177 1.036C383.4 74.217 359.65 80.59 331 91.311c-3.575 1.338-9.875 3.69-14 5.227-4.125 1.537-8.625 3.563-10 4.502-1.375.94-4.75 2.704-7.5 3.922-15.512 6.867-26.315 13.674-33.162 20.897-15.497 16.348-18.275 27.025-10.945 42.07 4.303 8.83 5.336 10.06 12.002 14.283 2.808 1.779 5.725 4.08 6.482 5.111 1.744 2.378 25.68 13.907 34.193 16.47 17.584 5.294 22.952 6.79 41.93 11.677 24.29 6.257 46.18 9.097 72.449 9.4 9.322.107 17.109.354 17.303.55.827.825 40.268-.3 45.748-1.307zm40-9.456c18.685-1.063 25.661-1.598 28.5-2.186 1.375-.285 5.65-.944 9.5-1.464 6.198-.837 22.194-4.017 34.177-6.794 2.297-.532 9.047-2.859 15-5.17a2378.992 2378.992 0 0115.323-5.9c3.797-1.432 4.545-2.161 4.79-4.67.24-2.461-.694-3.963-5.423-8.723-3.142-3.163-6.067-5.75-6.5-5.75-.432 0-1.817-1.066-3.077-2.368-2.62-2.71-12.868-8.21-17.223-9.244-1.614-.383-4.089-1.3-5.5-2.036-1.412-.737-3.834-1.342-5.383-1.346-1.548-.003-3.589-.42-4.533-.925-6.565-3.513-29.439-3.124-53.651.912-27.993 4.667-35.781 7.737-46.723 18.421l-4.01 3.914.685 8.753c.757 9.666-.46 13.807-4.712 16.032-4.09 2.14-12.74 8.071-12.738 8.734.003.877 45.194.736 61.498-.19zm-96.352-2.622c7.436-.943 25.888-9.104 29.328-12.97 2.114-2.377 2.404-6.683 1.03-15.255-1.325-8.26.891-12.166 11.458-20.203 10.157-7.724 21.534-12.585 33.036-14.113a1671.03 1671.03 0 0014-1.973c5.225-.756 14.45-1.914 20.5-2.574 6.05-.66 11.675-1.334 12.5-1.497.825-.163 4.875-.36 9-.437 8.605-.16 7.048-1.559-2.691-2.417-3.195-.281-7.159-.708-8.809-.948-20.159-2.935-35.625-3.851-48.41-2.868-15.4 1.184-17.864 1.522-31.09 4.258-12.99 2.686-23.047 5.381-26.018 6.972-1.365.73-2.482 1.15-2.482.934 0-.35-2.529.505-9 3.042-7.568 2.966-15.738 7.501-17.462 9.693-3.126 3.974-2.64 7.888 1.462 11.756 2.714 2.56 3.5 4.093 3.5 6.827 0 5.193-4.18 9.076-14.152 13.15-8.823 3.603-30.212 10.588-32.423 10.588-.719 0-1.574.433-1.901.962-.327.529 1.834 1.668 4.803 2.53 8.004 2.328 8.924 2.481 24.643 4.112 7.958.826 14.582 1.615 14.72 1.752.296.297 5.333-.163 14.458-1.32zM617 207.587c3.575-.815 9.484-2.13 13.13-2.922 7.194-1.562 17.146-6.386 34.447-16.697 14.346-8.55 24.536-16.845 28.631-23.304 4.69-7.398 4.962-8.325 4.928-16.838-.031-7.941-.225-8.477-8.307-23.014-3.318-5.968-12.568-14.162-20.969-18.576-2.948-1.55-7.324-4.074-9.723-5.61-2.4-1.537-6.225-3.6-8.5-4.584-2.276-.984-7.972-3.619-12.659-5.855-8.836-4.215-13.978-5.731-13.978-4.12 0 .513.452.933 1.005.933.553 0 3.337 1.125 6.187 2.5s5.736 2.5 6.412 2.5c.676 0 1.38.338 1.563.75.183.412 1.908 1.528 3.833 2.478 12.344 6.096 21.04 11.78 28.345 18.532 4.984 4.606 13.153 14.24 12.074 14.24-.422 0 .168 1.012 1.31 2.25 2.334 2.526 4.334 8.825 3.756 11.826-.214 1.115.047 1.713.6 1.372.6-.37.785.686.479 2.723-1.86 12.367-2.25 13.829-3.69 13.829-.545 0-2.877 2.084-5.182 4.632-8.267 9.135-24.031 19.906-42.692 29.169-6.875 3.413-13.175 6.612-14 7.11-.825.498-5.662 2.584-10.75 4.634-5.087 2.051-9.25 3.951-9.25 4.223 0 .563 3.658-.05 13-2.181zM310.291 184.25c.89-3.163 2.7-6.875 4.022-8.25 3.079-3.203 7.547-7 8.237-7 .562 0 2.4-1.432 5.248-4.087 2.147-2.002 10.86-7.913 11.664-7.913.331 0 2.275-.733 4.32-1.63 3.75-1.643 10.623-4.228 28.44-10.697 8.233-2.989 15.934-5.203 28.902-8.308 3.27-.784 21.999-3.898 42.376-7.047 5.83-.901 56.832-1.06 70-.217 4.95.316 11.7 1.066 15 1.666 3.3.6 8.475 1.364 11.5 1.698 5.572.614 9.5 1.251 9.5 1.54 0 .088 1.35.367 3 .62 4.112.633 17.55 4.266 20 5.408 1.1.513 4.25 1.415 7 2.005 5.6 1.2 15.5 5.723 15.5 7.08 0 .485.523.882 1.163.882s5.9 2.588 11.688 5.75c7.762 4.24 12.313 7.564 17.337 12.66 6.677 6.773 8.276 7.754 5.341 3.275-1.415-2.16-1.149-2.527 7.052-9.715l8.522-7.47-.536-8.69c-.536-8.678-3.135-16.196-6.261-18.11-.718-.44-1.306-1.202-1.306-1.694s-1.573-2.607-3.495-4.7c-1.923-2.093-3.498-4.433-3.5-5.2-.003-.767-1.693-2.905-3.755-4.752C623.55 108.042 606.682 97 605.32 97c-.385 0-3.427-1.31-6.76-2.91-5.12-2.457-11.439-5.059-22.06-9.081-4.095-1.551-16.119-4.963-19.5-5.534-5.784-.977-7.5-1.314-7.5-1.475 0-.191-2.725-.685-8.357-1.513-5.929-.873-75.563-1.021-86.143-.184-9.875.782-12.93 1.181-15 1.962-2.168.817-10.099 1.686-20.998 2.3-5.226.295-11.527.957-14.002 1.472a487.085 487.085 0 01-7 1.407c-1.375.259-6.775 1.418-12 2.576-5.225 1.158-10.4 2.245-11.5 2.415-1.1.17-2 .408-2 .529 0 .12-1.572.44-3.492.71-1.921.271-3.721.85-4 1.288-.28.438-2.87 1.118-5.758 1.51-3.133.427-5.25 1.217-5.25 1.958 0 .718-3.063 1.97-7.25 2.963-15.83 3.757-27.807 8.749-42.25 17.61-19.212 11.785-28.453 29.271-23.518 44.497 2.765 8.528 3.56 10.046 7.822 14.943 5.599 6.434 16.212 15.434 18.282 15.504 1.092.036 2.09-1.737 3.205-5.697zM622.5 84c-.34-.55-1.285-1-2.1-1-.816 0-4.277-1.291-7.692-2.87-5.293-2.446-12.272-5.112-14.958-5.712a20.07 20.07 0 01-1.5-.411c-.412-.134-1.049-.203-1.414-.154-.366.05-2.841-.51-5.5-1.244-2.66-.734-5.736-1.376-6.836-1.426-2.353-.108-7.134-.828-10.098-1.52-1.154-.27-4.53-.78-7.5-1.136-2.971-.355-10.127-1.359-15.902-2.231-12.354-1.866-31.548-2.148-33.208-.488-1.666 1.666.133 2.026 13.208 2.647 6.325.3 12.625.742 14 .982s6.325.931 11 1.536c12.651 1.636 27.115 4.046 30.397 5.065 1.593.494 3.27.667 3.729.384.458-.283 1.796.001 2.974.632 1.65.883 1.97.87 1.398-.058-.41-.662.433-.432 1.871.51 1.439.943 3.317 1.445 4.175 1.115.896-.343 1.3-.177.949.39-.368.596 1.178.989 3.889.989 2.475 0 4.802.49 5.172 1.087.37.598 1.52.865 2.559.594 1.038-.272 1.887-.13 1.887.313 0 .444 1.688 1.256 3.75 1.803 5.056 1.343 6.486 1.393 5.75.203z" fill="#333"/></svg>